<?xml version="1.0" standalone="no"?>
<!DOCTYPE svg PUBLIC "-//W3C//DTD SVG 20010904//EN"
 "http://www.w3.org/TR/2001/REC-SVG-20010904/DTD/svg10.dtd">
<svg version="1.0" xmlns="http://www.w3.org/2000/svg"
 width="160.000000pt" height="160.000000pt" viewBox="0 0 160.000000 160.000000"
 preserveAspectRatio="xMidYMid meet">
<metadata>
Created by potrace 1.11, written by Peter Selinger 2001-2013
</metadata>
<g transform="translate(0.000000,160.000000) scale(0.100000,-0.100000)"
fill="#000000" stroke="none">
<path d="M1107 1313 c-4 -3 -7 -21 -7 -40 0 -31 2 -33 35 -33 34 0 35 1 35 40
0 37 -2 40 -28 40 -16 0 -32 -3 -35 -7z"/>
<path d="M1197 1313 c-4 -3 -7 -21 -7 -40 0 -31 2 -33 34 -33 41 0 45 5 39 48
-5 27 -9 32 -32 32 -15 0 -31 -3 -34 -7z"/>
<path d="M290 955 l0 -245 40 0 40 0 1 133 c0 72 2 128 4 122 2 -5 13 -65 26
-132 22 -123 22 -123 50 -123 33 0 32 -2 59 149 11 63 22 117 25 119 3 3 5
-56 5 -131 l0 -137 40 0 40 0 0 245 0 246 -57 -3 -58 -3 -24 -130 c-27 -143
-29 -143 -55 10 -10 55 -20 106 -22 113 -2 8 -23 12 -59 12 l-55 0 0 -245z"/>
<path d="M680 955 l0 -245 45 0 45 0 0 245 0 245 -45 0 -45 0 0 -245z"/>
<path d="M806 1176 c-10 -41 2 -56 45 -56 l39 0 0 -205 0 -205 45 0 45 0 0
205 0 205 40 0 40 0 0 40 0 40 -124 0 c-123 0 -124 0 -130 -24z"/>
<path d="M1126 1173 c-14 -70 -76 -434 -76 -448 0 -11 11 -15 40 -15 42 0 45
4 52 70 2 20 9 26 36 28 34 4 36 1 47 -60 6 -37 7 -38 50 -38 l44 0 -6 38 c-4
20 -23 129 -42 242 l-37 205 -51 3 c-49 3 -51 2 -57 -25z m68 -225 c7 -55 6
-58 -14 -58 -20 0 -21 4 -15 48 12 92 19 94 29 10z"/>
<path d="M867 582 c-13 -14 -17 -38 -17 -103 0 -93 8 -109 51 -109 48 0 59 22
59 115 0 75 -2 85 -22 99 -29 21 -51 20 -71 -2z m51 -102 c-2 -40 -8 -65 -15
-68 -10 -3 -13 15 -13 66 0 38 3 72 7 76 15 15 24 -15 21 -74z"/>
<path d="M995 586 c-30 -21 -24 -71 13 -109 18 -18 32 -41 32 -50 0 -24 -17
-21 -23 3 -7 26 -47 28 -47 2 0 -56 73 -84 104 -40 24 33 20 54 -19 97 -35 38
-44 61 -25 61 6 0 10 -7 10 -15 0 -8 9 -15 20 -15 15 0 20 7 20 24 0 47 -46
70 -85 42z"/>
<path d="M1232 584 c-12 -8 -22 -10 -22 -5 0 7 -25 11 -60 11 -53 0 -60 -2
-60 -20 0 -13 7 -20 20 -20 19 0 20 -7 20 -90 0 -83 1 -90 20 -90 18 0 20 7
20 89 0 80 2 89 20 94 19 5 20 0 20 -72 0 -63 4 -81 18 -94 28 -25 69 -21 88
8 24 37 16 171 -11 191 -24 18 -45 18 -73 -2z m48 -105 c0 -39 -4 -69 -10 -69
-6 0 -10 32 -10 76 0 47 4 73 10 69 6 -3 10 -37 10 -76z"/>
<path d="M343 573 c3 -10 13 -60 22 -110 16 -84 20 -93 39 -93 20 0 24 9 41
98 10 53 20 103 22 110 3 7 -4 12 -20 12 -22 0 -25 -5 -32 -52 -7 -45 -9 -49
-15 -28 -5 14 -8 37 -9 53 -1 22 -6 27 -27 27 -19 0 -24 -4 -21 -17z"/>
<path d="M480 480 l0 -110 50 0 c43 0 50 3 50 20 0 16 -7 20 -30 20 -27 0 -30
3 -30 30 0 23 4 30 20 30 13 0 20 7 20 20 0 13 -7 20 -20 20 -33 0 -26 38 7
42 17 2 29 10 31 21 3 14 -4 17 -47 17 l-51 0 0 -110z"/>
<path d="M599 588 c-5 -10 -6 -122 -2 -165 4 -43 9 -53 24 -53 15 0 19 8 20
43 l1 42 12 -40 c9 -29 19 -41 36 -43 20 -3 22 -1 14 25 -9 31 -8 60 1 114 11
57 -7 79 -60 79 -25 0 -46 -1 -46 -2z m61 -63 c0 -14 -4 -25 -10 -25 -5 0 -10
11 -10 25 0 14 5 25 10 25 6 0 10 -11 10 -25z"/>
<path d="M726 568 c1 -13 3 -62 3 -110 1 -81 3 -88 21 -88 17 0 20 7 21 43 l1
42 15 -42 c10 -30 20 -43 34 -43 23 0 24 13 3 74 -16 47 -14 69 12 134 4 7 -3
12 -18 12 -17 0 -27 -8 -35 -27 l-11 -28 -1 28 c-1 21 -6 27 -24 27 -19 0 -23
-5 -21 -22z"/>
<path d="M260 485 c0 -10 11 -15 35 -15 24 0 35 5 35 15 0 10 -11 15 -35 15
-24 0 -35 -5 -35 -15z"/>
</g>
</svg>
